<svg xmlns="http://www.w3.org/2000/svg" viewBox="0 0 448 512">
  <!-- Blocks / squares -->
  <path fill="#8F1DAD" d="M64 160h64v-64H64v64zM0 80c0-26.5 21.5-48 48-48h96c26.5 0 48 21.5 48 48v96c0 26.5-21.5 48-48 48H48c-26.5 0-48-21.5-48-48V80zM64 416h64v-64H64v64zM0 336c0-26.5 21.5-48 48-48h96c26.5 0 48 21.5 48 48v96c0 26.5-21.5 48-48 48H48c-26.5 0-48-21.5-48-48v-96zM320 96v64h64v-64h-64zM304 32h96c26.5 0 48 21.5 48 48v96c0 26.5-21.5 48-48 48h-96c-26.5 0-48-21.5-48-48V80c0-26.5 21.5-48 48-48z"/>
  
  <!-- Circles / connectors -->
  <path fill="#F5A623" d="M288 352a32 32 0 1 1 0-64 32 32 0 1 1 0 64zm0 64c17.7 0 32 14.3 32 32s-14.3 32-32 32-32-14.3-32-32 14.3-32 32-32zm96 32c0-17.7 14.3-32 32-32s32 14.3 32 32-14.3 32-32 32-32-14.3-32-32zm32-96a32 32 0 1 1 0-64 32 32 0 1 1 0 64zm-32 32a32 32 0 1 1-64 0 32 32 0 1 1 64 0z"/>
</svg>
