<svg xmlns="http://www.w3.org/2000/svg" viewBox="0 0 512 512">
  <!-- Top Layer -->
  <path
    d="M32 64C14.3 64 0 78.3 0 96s14.3 32 32 32h86.7c12.3 28.3 40.5 48 73.3 48s61-19.7 73.3-48H480c17.7 0 32-14.3 32-32s-14.3-32-32-32H265.3C253 35.7 224.8 16 192 16s-61 19.7-73.3 48H32z"
    fill="#8F1DAD"
  />

  <!-- Middle Layer -->
  <path
    d="M32 224c-17.7 0-32 14.3-32 32s14.3 32 32 32h246.7c12.3 28.3 40.5 48 73.3 48s61-19.7 73.3-48h54.7c17.7 0 32-14.3 32-32s-14.3-32-32-32h-54.7c-12.3-28.3-40.5-48-73.3-48s-61 19.7-73.3 48H32z"
    fill="#F5A623"
  />

  <!-- Bottom Layer -->
  <path
    d="M32 384c-17.7 0-32 14.3-32 32s14.3 32 32 32h54.7c12.3 28.3 40.5 48 73.3 48s61-19.7 73.3-48H480c17.7 0 32-14.3 32-32s-14.3-32-32-32H233.3c-12.3-28.3-40.5-48-73.3-48s-61 19.7-73.3 48H32z"
    fill="#8F1DAD"
  />
</svg>
