<svg xmlns="http://www.w3.org/2000/svg" viewBox="0 0 512 512">
  <!-- Body of the Briefcase -->
  <path
    d="M96.4 352h320v-66.4c7.6 1.6 15.5 2.4 23.5 2.4 14.3 0 28-2.6 40.5-7.2v151.2c0 26.5-21.5 48-48 48h-352c-26.5 0-48-21.5-48-48v-151.2c12.5 4.6 26.1 7.2 40.5 7.2 8.1 0 15.9-.8 23.5-2.4V352z"
    fill="#8F1DAD"
  />

  <!-- Lid, Handle, and Accent -->
  <path
    d="M30.7 72.3C37.6 48.4 59.5 32 84.4 32h344c24.9 0 46.8 16.4 53.8 40.3l23.4 80.2c12.8 43.7-20.1 87.5-65.6 87.5-26.3 0-49.4-14.9-60.8-37.1-11.6 21.9-34.6 37.1-61.4 37.1-26.6 0-49.7-15-61.3-37-11.6 22-34.7 37-61.3 37-26.8 0-49.8-15.1-61.4-37.1-11.4 22.1-34.5 37.1-60.8 37.1-45.6 0-78.4-43.7-65.6-87.5l23.4-80.2z"
    fill="#F5A623"
  />
</svg>
