<svg xmlns="http://www.w3.org/2000/svg" viewBox="0 0 448 512" width="80" height="80" class="duotone-icon">
  <defs>
    <linearGradient id="purpleGold" x1="0" y1="0" x2="1" y2="1">
      <stop offset="0%" stop-color="#8f1dad"/>
      <stop offset="100%" stop-color="#ffc107"/>
    </linearGradient>
  </defs>

  <!-- Gold secondary tone -->
  <path d="M0 93.7l183.6-25.3 0 177.4-183.6 0 0-152.1zM0 418.3l183.6 25.3 0-175.2-183.6 0 0 149.9zm203.8 28l244.2 33.7 0-211.6-244.2 0 0 177.9zm0-380.6l0 180.1 244.2 0 0-213.8-244.2 33.7z"
        fill="#ffc107" opacity="0.25"/>
  <!-- Gradient primary tone -->
  <path d="M0 93.7l183.6-25.3 0 177.4-183.6 0 0-152.1zM0 418.3l183.6 25.3 0-175.2-183.6 0 0 149.9zm203.8 28l244.2 33.7 0-211.6-244.2 0 0 177.9zm0-380.6l0 180.1 244.2 0 0-213.8-244.2 33.7z"
        fill="url(#purpleGold)"/>
</svg>
