<svg xmlns="http://www.w3.org/2000/svg" viewBox="0 0 448 512">
  <!-- Main body / icon shape -->
  <path fill="#8F1DAD" d="M224 0c-17.7 0-32 14.3-32 32v3.2C119 50 64 114.6 64 192v21.7c0 48.1-16.4 94.8-46.4 132.4L7.8 358.3c-5.1 6.3-7.8 14.1-7.8 22.2 0 19.6 15.9 35.5 35.5 35.5h376.9c19.6 0 35.5-15.9 35.5-35.5 0-8.1-2.7-15.9-7.8-22.2l-9.8-12.2C400.4 308.5 384 261.8 384 213.7v-21.7c0-77.4-55-142-128-156.8v-3.2c0-17.7-14.3-32-32-32z"/>

  <!-- Base / highlight -->
  <path fill="#F5A623" d="M162 464c7.1 27.6 32.2 48 62 48s54.9-20.4 62-48h-124z"/>
</svg>
