<svg xmlns="http://www.w3.org/2000/svg" viewBox="0 0 448 512">
  <!-- Head / upper part -->
  <path fill="#8F1DAD" d="M224 248a120 120 0 1 1 0-240 120 120 0 1 1 0 240z"/>
  
  <!-- Body / base part -->
  <path fill="#F5A623" d="M193.5 304h61c9.7 0 17.5 7.8 17.5 17.5 0 4.2-1.5 8.2-4.2 11.4l-27.4 32 31 115.1h.6l34.6-138.5c2.2-8.7 11.1-14 19.5-10.8 61.9 23.6 105.9 83.6 105.9 153.8 0 15.1-12.3 27.4-27.4 27.4H43.4c-15.1 0-27.4-12.3-27.4-27.4 0-70.2 44-130.2 105.9-153.8 8.4-3.2 17.3 2.1 19.5 10.8l34.6 138.5h.6l31-115.1-27.4-32c-2.7-3.2-4.2-7.2-4.2-11.4 0-9.7 7.8-17.5 17.5-17.5z"/>
</svg>
