<svg xmlns="http://www.w3.org/2000/svg" viewBox="0 0 576 512">
  <!-- Left user head -->
  <path d="M176 240a112 112 0 1 0 -112 -112 112 112 0 0 0 112 112z" fill="#8f1dad"/>

  <!-- Left user body -->
  <path d="M0 464c0-97.2 78.8-176 176-176s176 78.8 176 176v6c0 23.2-18.8 42-42 42H42c-23.2 0-42-18.8-42-42v-6z" fill="#8f1dad"/>

  <!-- Right user head -->
  <path d="M432 256a96 96 0 1 0 -96 -96 96 96 0 0 0 96 96z" fill="#F5A623"/>

  <!-- Right user body -->
  <path d="M432 304c79.5 0 144 64.5 144 144v22.4c0 23-18.6 41.6-41.6 41.6H389.6c6.6-12.5 10.4-26.8 10.4-42v-6c0-51.5-17.4-98.9-46.5-136.7 22.6-14.7 49.6-23.3 78.5-23.3z" fill="#9013FE"/>
</svg>
